<svg width="100%" height="100%" viewBox="0 0 600 170" fill="currentColor" xmlns="http://www.w3.org/2000/svg">
    <path d="M14.9,52.8V27.1H2v38.7h38.7V52.8H14.9z M66.3,1.3H2v19.3h12.8v-6.4h38.7v38.6H47v12.9h19.3V1.3z M83.4,1.3h19.8v47.9h28.5
        v16.5H83.4V1.3z M140.2,1.3h49.8v16.5h-30v8h25.8v15.4h-25.8v24.5h-19.8V1.3z M228.3,1.5h6.8l25.2,64.2h-6.6l-7.8-20h-29.2l-7.7,20
        h-6.6L228.3,1.5z M218.6,40.6h25.2L231.4,7.7L218.6,40.6z M268.8,1.5h6.1v64.2h-6.1V1.5z M345.9,49.9c1.1-1.8,1.8-3.8,2.1-5.9
        c0.3-2.1,0.5-4.2,0.5-6.3h5.2c-0.1,2.9-0.5,5.7-1.1,8.5c-0.6,2.8-1.7,5.5-3.3,7.9l10.2,12h-7.1l-6.1-7.4c-2.4,3-5.4,5.3-8.8,7
        c-3.5,1.5-7.2,2.2-11,2.1c-2.6,0-5.2-0.4-7.7-1.3c-2.3-0.8-4.4-2.1-6.2-3.8c-1.8-1.6-3.2-3.6-4.2-5.9c-1-2.4-1.6-5-1.5-7.6
        c0-2.2,0.4-4.4,1.2-6.4c0.8-2,1.9-3.8,3.3-5.4c1.4-1.6,3-3.1,4.7-4.3c1.8-1.3,3.7-2.3,5.7-3.3c-1.7-2-3.2-4.1-4.6-6.4
        c-1.4-2.3-2.1-4.9-2.1-7.6c0-1.8,0.4-3.6,1.1-5.3c0.7-1.5,1.8-2.8,3-3.9c1.3-1.1,2.8-1.9,4.5-2.4c1.8-0.5,3.6-0.8,5.4-0.8
        c1.8,0,3.6,0.3,5.3,1c1.5,0.6,3,1.5,4.2,2.6c2.3,2.2,3.7,5.3,3.7,8.5c0,1.9-0.3,3.7-1,5.4c-0.7,1.5-1.6,2.9-2.7,4.1
        c-1.2,1.2-2.5,2.3-4,3.3c-1.5,1-3.1,2-4.7,3L345.9,49.9z M325.1,33.5c-1.7,0.8-3.3,1.8-4.8,2.9c-1.4,1.1-2.7,2.4-3.8,3.8
        c-1.1,1.4-1.9,2.9-2.6,4.5c-0.6,1.6-1,3.2-1,4.9c0,1.9,0.3,3.8,1.1,5.6c0.7,1.6,1.7,3,3,4.2c1.3,1.2,2.8,2.1,4.4,2.7
        c1.8,0.7,3.7,1,5.6,1c3.1,0.1,6.2-0.7,8.9-2.3c2.7-1.6,5-3.7,7-6L325.1,33.5z M336.2,19.1c1-2.4,0.9-5.1-0.5-7.3
        c-1.5-2.4-4.1-3.8-6.9-3.7c-1.1,0-2.1,0.2-3.1,0.5c-1,0.3-1.9,0.8-2.7,1.5c-0.8,0.6-1.4,1.4-1.9,2.3c-0.5,1-0.7,2-0.7,3.1
        c0,1.1,0.3,2.1,0.7,3c0.5,1.1,1,2.2,1.7,3.2c0.7,1,1.4,2,2.1,3c0.8,1,1.4,1.8,2,2.5c1.7-1,3.5-2.2,5.3-3.4
        C334,22.7,335.4,21,336.2,19.1z M388.4,66.1V3.4h21.4c1.7,0,3.5,0,5.1,0.1c1.7,0.1,3.3,0.3,5,0.6c1.6,0.3,3.2,0.8,4.7,1.4
        c1.6,0.7,3.1,1.5,4.5,2.5c2.1,1.5,3.8,3.4,5.1,5.5c1.3,2.2,2.4,4.5,3.2,6.9c0.8,2.4,1.3,4.8,1.7,7.3c0.3,2.3,0.5,4.5,0.5,6.8
        c0,2.1-0.1,4.2-0.4,6.4c-0.3,2.1-0.7,4.2-1.3,6.3c-0.6,2-1.3,4-2.3,5.9c-1,1.9-2.2,3.6-3.6,5.2c-1.4,1.6-3,2.9-4.7,3.9
        c-1.7,1-3.5,1.8-5.4,2.3c-1.9,0.6-3.9,0.9-5.9,1.1c-2,0.2-4.1,0.3-6.2,0.3H388.4z M394.3,61h14.2c2.5,0,5-0.1,7.5-0.5
        c2.5-0.4,4.9-1.2,7.2-2.4c2-1,3.8-2.5,5.1-4.3c1.3-1.8,2.4-3.8,3.2-5.9c0.8-2.2,1.3-4.4,1.7-6.7c0.3-2.2,0.5-4.5,0.5-6.7
        c0-2.3-0.1-4.6-0.4-6.9c-0.3-2.3-0.8-4.5-1.7-6.7c-0.8-2.1-1.9-4.1-3.3-5.8c-1.5-1.8-3.3-3.3-5.4-4.4c-2.1-1-4.3-1.7-6.6-1.9
        c-2.6-0.3-5.2-0.4-7.7-0.4h-14.2L394.3,61z M443.3,66.1l24.6-62.7h6.7l24,62.7h-6.1l-7.2-19.7h-28.5l-7.4,19.7H443.3z M458.8,41.4
        h24.5L471,8.5L458.8,41.4z M499.2,3.4h45.6v5H525v57.6h-5.9V8.5h-19.8V3.4z M543.2,66.1l24.6-62.7h6.7l24,62.7h-6.1l-7.2-19.7h-28.5
        l-7.4,19.7H543.2z M558.7,41.4h24.5L570.9,8.5L558.7,41.4z M32.4,127.4c4,2.2,6.5,5.9,7.4,11.3h-5.5c-0.4-2.7-1.9-5-4.1-6.6
        c-2.4-1.5-5.1-2.2-7.8-2.1c-3.6,0-7.1,1.5-9.5,4.3c-2.6,2.9-3.8,7.1-3.8,12.8c-0.2,4.2,0.9,8.4,3.2,12c2.1,3.1,5.6,4.6,10.3,4.6
        c3.3,0.1,6.6-1,9.1-3.2c2.4-2.2,3.6-5.7,3.7-10.5H22.4v-4.6h18.1v22.1h-3.6l-1.3-5.3c-1.4,1.7-3.1,3.2-4.9,4.3
        c-2.8,1.5-6,2.2-9.2,2.1c-4.6,0.1-9-1.6-12.4-4.8c-3.8-4-5.7-9.4-5.7-16.4c0-6.9,1.8-12.4,5.5-16.5c3.5-3.9,8.4-6,13.6-5.8
        C26,125,29.4,125.8,32.4,127.4z M50.4,126.2h18.8c2.6-0.1,5.2,0.4,7.6,1.4c3.8,1.8,5.7,5,5.7,9.8c0.3,4.2-2,8.1-5.8,9.9
        c1.4,0.5,2.7,1.4,3.6,2.6c1,1.6,1.4,3.4,1.4,5.2l0.2,5.5c0,1.2,0.1,2.4,0.4,3.5c0.2,1.1,0.8,2,1.8,2.5v0.9h-6.9
        c-0.2-0.4-0.4-0.9-0.4-1.4c-0.2-1.1-0.3-2.2-0.3-3.3l-0.3-6.9c-0.1-2.7-1.1-4.5-2.9-5.4c-1.6-0.6-3.2-0.9-4.9-0.8H56v17.7h-5.6
        V126.2z M68.6,145.1c2.1,0.1,4.2-0.4,6.1-1.6c1.5-1,2.2-2.9,2.2-5.7c0-2.9-1-4.9-3.1-6c-1.4-0.6-2.9-0.9-4.5-0.8H56v14.1L68.6,145.1
        z M103.3,126.2h6.3l15,41.3h-6.1l-4.2-12.4H98l-4.5,12.4h-5.7L103.3,126.2z M112.5,150.6l-6.3-18.2l-6.7,18.2H112.5z M129.9,126.2
        h16.5c5.1-0.2,9.9,2,13,6c2.9,4.1,4.3,9,4.1,14c0.1,4.1-0.8,8.2-2.4,11.9c-2.9,6.3-7.8,9.4-14.8,9.4h-16.4L129.9,126.2z
         M145.3,162.7c1.5,0,3.1-0.2,4.6-0.6c2.2-0.8,4-2.3,5.2-4.2c1.2-2,2-4.1,2.3-6.4c0.3-1.4,0.4-2.9,0.4-4.3c0-5.1-1-9.1-3-11.9
        c-2-2.8-5.2-4.2-9.6-4.2h-9.7v31.7H145.3z M177.3,126.2v25.5c-0.1,2.6,0.5,5.2,1.7,7.5c1.7,3,4.5,4.5,8.5,4.5c4.8,0,8-1.6,9.7-4.9
        c1-2.2,1.5-4.7,1.4-7.1v-25.5h5.6v23.2c0,5.1-0.7,9-2.1,11.7c-2.5,5-7.3,7.5-14.3,7.5c-7,0-11.7-2.5-14.2-7.5
        c-1.4-2.7-2.1-6.6-2.1-11.7v-23.2H177.3z M224.8,126.2h6.3l15,41.3H240l-4.2-12.4h-16.3l-4.5,12.4h-5.7L224.8,126.2z M234,150.6
        l-6.3-18.2l-6.7,18.2H234z M277,126.2v4.9h-13.9v36.4h-5.6v-36.4h-13.9v-4.9H277z M282.7,126.2h30v5.1h-24.5v12.5h22.7v4.8h-22.7v14
        H313v4.9h-30.4V126.2z M337,126.2h18.5c3.2-0.1,6.4,1,8.8,3.1c2.3,2.3,3.6,5.5,3.4,8.7c0.1,3.1-1,6.1-3,8.4c-2,2.4-5.1,3.6-9.2,3.6
        h-12.9v17.5H337V126.2z M358.7,131.9c-1.6-0.7-3.3-0.9-5.1-0.9h-11.1v14.3h11.1c2.1,0.1,4.3-0.5,6.1-1.6c1.6-1.1,2.3-3,2.3-5.6
        C362.1,135,361,132.9,358.7,131.9z M375.6,126.2h18.8c2.6-0.1,5.2,0.4,7.6,1.4c3.8,1.8,5.7,5,5.7,9.8c0.3,4.2-2,8.1-5.8,9.9
        c1.4,0.5,2.7,1.4,3.6,2.6c1,1.6,1.4,3.4,1.4,5.2l0.2,5.5c0,1.2,0.1,2.4,0.4,3.5c0.2,1.1,0.8,2,1.8,2.5v0.9h-6.9
        c-0.2-0.4-0.4-0.9-0.4-1.4c-0.2-1.1-0.3-2.2-0.3-3.3l-0.3-6.9c-0.1-2.7-1.1-4.5-2.9-5.4c-1.6-0.6-3.2-0.9-4.9-0.8h-12.4v17.7h-5.6
        V126.2z M393.7,145.1c2.1,0.1,4.2-0.4,6.1-1.6c1.5-1,2.2-2.9,2.2-5.7c0-2.9-1-4.9-3.1-6c-1.4-0.6-2.9-0.9-4.5-0.8h-13.3v14.1
        L393.7,145.1z M450.5,132.1c2.9,4.1,4.3,9,4.1,14c0.2,5.5-1.4,10.9-4.7,15.4c-3.7,4.8-8.9,7.2-15.7,7.2c-6.4,0-11.3-2.1-15-6.3
        c-3.4-4.4-5.1-9.8-4.9-15.3c-0.1-5.1,1.3-10.1,4.2-14.3c3.6-5.1,8.8-7.6,15.8-7.6C441.6,125.1,447,127.4,450.5,132.1z M445.5,158.4
        c2.2-3.7,3.4-7.9,3.3-12.2c0.2-4.2-1.1-8.4-3.8-11.7c-2.6-3-6.4-4.6-10.4-4.4c-4-0.1-7.8,1.5-10.5,4.4c-2.7,2.9-4,7.3-4,13
        c-0.1,4.1,1.1,8.2,3.5,11.6c2.3,3.1,6.1,4.7,11.3,4.7C439.8,163.7,443.3,161.9,445.5,158.4z M481.5,155.2c0.1,2.8-0.4,5.6-1.5,8.1
        c-1.9,3.5-5.6,5.3-10.9,5.3c-2.9,0.1-5.6-0.8-7.9-2.5c-2.2-1.7-3.3-4.7-3.3-9v-3h5.3v3c-0.1,1.8,0.4,3.6,1.5,5.1
        c1.2,1.2,3,1.8,4.7,1.7c3,0,4.9-1,5.9-3.1c0.7-2.3,1-4.7,0.8-7.1v-27.5h5.5V155.2z M490.6,126.2h30v5.1H496v12.5h22.7v4.8H496v14
        h24.9v4.9h-30.4V126.2z M557.6,129.2c2.7,2.4,4.4,5.8,4.8,9.4h-5.5c-0.9-5.4-5.8-9.2-11.3-8.7c-3.7-0.1-7.3,1.5-9.7,4.3
        c-2.5,2.9-3.7,7.2-3.7,13.2c-0.2,4.2,1,8.3,3.3,11.8c2.2,3,5.5,4.5,9.9,4.5c3.7,0.2,7.2-1.6,9.2-4.8c1.3-2,2.1-4.2,2.5-6.6h5.5
        c-0.4,4.1-2,7.9-4.8,10.9c-3.4,3.6-8.2,5.5-13.1,5.3c-4.4,0.1-8.7-1.4-11.9-4.4c-4.2-3.8-6.4-9.8-6.4-17.8c-0.2-5.4,1.5-10.7,4.8-15
        c3.5-4.3,8.8-6.6,14.3-6.4C550.8,125.1,554.8,126.4,557.6,129.2z M600,126.2v4.9h-13.9v36.4h-5.6v-36.4h-13.9v-4.9H600z M2,94h596.5
        v2.8H2V94z"></path>
    </svg>
